<?xml version="1.0" encoding="utf-8"?>
<!-- Generator: Adobe Illustrator 24.2.3, SVG Export Plug-In . SVG Version: 6.00 Build 0)  -->
<svg version="1.1" id="Layer_1" xmlns="http://www.w3.org/2000/svg" xmlns:xlink="http://www.w3.org/1999/xlink" x="0px" y="0px"
	 viewBox="0 0 384 384" style="enable-background:new 0 0 384 384;" xml:space="preserve">
<style type="text/css">
	.st0{fill:#3C2615;}
</style>
<g>
	<path class="st0" d="M203.25,79.5c0,6.21-5.03,11.25-11.25,11.25c-6.22,0-11.25-5.04-11.25-11.25s5.03-11.25,11.25-11.25
		C198.21,68.25,203.25,73.29,203.25,79.5L203.25,79.5z M203.25,79.5"/>
	<path class="st0" d="M293.25,79.5c0,6.21-5.04,11.25-11.25,11.25c-6.22,0-11.25-5.04-11.25-11.25s5.03-11.25,11.25-11.25
		C288.21,68.25,293.25,73.29,293.25,79.5L293.25,79.5z M293.25,79.5"/>
	<path class="st0" d="M248.25,57c0,6.21-5.04,11.25-11.25,11.25S225.75,63.21,225.75,57s5.04-11.25,11.25-11.25
		S248.25,50.79,248.25,57L248.25,57z M248.25,57"/>
	<path class="st0" d="M158.25,57c0,6.21-5.04,11.25-11.25,11.25S135.75,63.21,135.75,57s5.04-11.25,11.25-11.25
		S158.25,50.79,158.25,57L158.25,57z M158.25,57"/>
	<path class="st0" d="M113.25,79.5c0,6.21-5.04,11.25-11.25,11.25S90.75,85.71,90.75,79.5S95.78,68.25,102,68.25
		S113.25,73.29,113.25,79.5L113.25,79.5z M113.25,79.5"/>
	<path class="st0" d="M384,225.75c0-21.2-14.74-39.01-34.5-43.75v-23.75c6.21,0,11.25-5.04,11.25-11.25v-23.25
		C360.75,55.52,305.23,0,237,0h-90C78.77,0,23.25,55.52,23.25,123.75V147c0,6.21,5.03,11.25,11.25,11.25V182
		C14.74,186.74,0,204.55,0,225.75s14.74,39.01,34.5,43.75v23.75c-6.22,0-11.25,5.04-11.25,11.25v23.25
		c0,31.02,25.23,56.25,56.25,56.25h225c31.02,0,56.25-25.23,56.25-56.25V304.5c0-5.96-4.64-10.82-10.5-11.21v-23.96
		C369.64,264.32,384,246.68,384,225.75L384,225.75z M293.25,293.25v-22.5h34.5v22.5H293.25z M361.5,225.75
		c0,12.41-10.09,22.5-22.5,22.5h-45.75v-45H339C351.41,203.25,361.5,213.34,361.5,225.75L361.5,225.75z M45.75,123.75
		C45.75,67.92,91.17,22.5,147,22.5h90c55.83,0,101.25,45.42,101.25,101.25v12H45.75V123.75z M327,158.25v22.5h-45
		c-6.22,0-11.25,5.03-11.25,11.25v112.5c0,6.2-5.05,11.25-11.25,11.25s-11.25-5.05-11.25-11.25V192c0-6.22-5.04-11.25-11.25-11.25
		h-67.5c-6.22,0-11.25,5.03-11.25,11.25c0,6.2-5.05,11.25-11.25,11.25c-6.2,0-11.25-5.05-11.25-11.25c0-6.22-5.04-11.25-11.25-11.25
		H57v-22.5H327z M22.5,225.75c0-12.41,10.09-22.5,22.5-22.5h70.18c4.64,13.1,17.16,22.5,31.82,22.5c14.67,0,27.18-9.4,31.82-22.5
		h46.93v45H45C32.59,248.25,22.5,238.16,22.5,225.75L22.5,225.75z M57,270.75h168.75v22.5H57V270.75z M338.25,327.75
		c0,18.61-15.14,33.75-33.75,33.75h-225c-18.61,0-33.75-15.14-33.75-33.75v-12h181.93c4.64,13.09,17.15,22.5,31.82,22.5
		c14.67,0,27.17-9.41,31.82-22.5h46.93V327.75z M338.25,327.75"/>
</g>
</svg>
