<?xml version="1.0" encoding="utf-8"?>
<!-- Generator: Adobe Illustrator 24.2.3, SVG Export Plug-In . SVG Version: 6.00 Build 0)  -->
<svg version="1.1" id="Layer_1" xmlns="http://www.w3.org/2000/svg" xmlns:xlink="http://www.w3.org/1999/xlink" x="0px" y="0px"
	 viewBox="0 0 512 404.03" style="enable-background:new 0 0 512 404.03;" xml:space="preserve">
<style type="text/css">
	.st0{fill:#3d2514;}
</style>
<g>
	<path class="st0" d="M218.53,384c-2.63,0-5.21,1.06-7.07,2.93c-1.86,1.86-2.93,4.43-2.93,7.06c0,2.64,1.07,5.22,2.93,7.08
		c1.86,1.86,4.44,2.93,7.07,2.93c2.63,0,5.21-1.07,7.07-2.93c1.86-1.86,2.93-4.44,2.93-7.08c0-2.63-1.07-5.2-2.93-7.06
		C223.74,385.07,221.16,384,218.53,384L218.53,384z M218.53,384"/>
	<path class="st0" d="M417.71,216.11l-7.19-32.47c1.2,0.15,2.42,0.23,3.66,0.23h20c5.52,0,10-4.48,10-10v-40c0-5.52-4.48-10-10-10
		h-20c-5.83,0-11.27,1.68-15.88,4.56l-3.9-17.61c12.18-1.65,21.6-12.11,21.6-24.73V68.03c0-13.77-11.2-24.97-24.97-24.97H332
		c-10.6,0-19.68,6.65-23.3,16H285c-14.34,0-26,11.67-26,26c0,14.34,11.66,26,26,26h51.47v20.15c0,5.52,4.48,10,10,10
		c5.52,0,10-4.48,10-10v-20.15h17.5l25.1,113.42l-47.51,84.62c-5.19,9.21-14.98,14.93-25.55,14.93h-118.6
		C202.45,282.39,166.95,250,124,250c-19,0-36.93,6.19-51.85,17.9c-0.02,0.01-0.04,0.03-0.06,0.04
		c-17.76,13.97-28.93,34.02-31.53,56.08H20.02c1.3-71.89,60.19-129.96,132.38-129.96h54.94c5.6,0,10.16,4.55,10.16,10.16v89.81
		c0,5.52,4.48,10,10,10h69.21c21.71,0,41.71-11.8,52.2-30.8c4.86-8.79,7.43-18.74,7.44-28.78l0.05-33.23
		c0.01-5.52-4.46-10-9.99-10.01c0,0-0.01,0-0.01,0c-5.52,0-9.99,4.46-10,9.98l-0.05,33.23c0,6.67-1.71,13.28-4.94,19.13
		c-6.98,12.63-20.27,20.47-34.7,20.47H237.5v-79.81c0-8.31-3.38-15.85-8.84-21.31c5.49-6.04,8.84-14.06,8.84-22.84
		c0-9.93-4.28-18.87-11.09-25.1c1.34-2.68,2.12-5.7,2.12-8.9V20c0-11.03-8.97-20-20-20H102.47c-11.03,0-20,8.97-20,20v58H40.09
		c-5.52,0-10,4.48-10,10c0,5.52,4.48,10,10,10h42.38v28.06H10c-5.52,0-10,4.48-10,10c0,5.52,4.48,10,10,10h66.53
		c-1.94,4.27-3.03,9.01-3.03,14c0,11.67,5.91,21.99,14.9,28.11C36.25,212.41,0,265.28,0,326.47v7.56c0,5.52,4.48,10,10,10h56.2
		c-0.13,0.64-0.2,1.31-0.2,2c0,14.51,5.37,27.79,14.21,37.97H40.09c-5.52,0-10,4.48-10,10c0,5.52,4.48,10,10,10h82.75
		c0.39,0.01,0.77,0.03,1.16,0.03c31.98,0,58-26.02,58-58c0-0.69-0.07-1.36-0.2-2h144.21c15.75,0,30.46-7.55,39.68-20.03h12.66
		c-2.85,6.93-4.36,14.4-4.36,22.03c0,14.51,5.37,27.79,14.21,37.97H258.53c-5.52,0-10,4.48-10,10c0,5.52,4.48,10,10,10h172.31
		c0.39,0.01,0.77,0.03,1.16,0.03c31.98,0,58-26.02,58-58c0-7.63-1.51-15.1-4.36-22.03H502c5.52,0,10-4.48,10-10
		C512,261.21,470.03,218.05,417.71,216.11L417.71,216.11z M414.18,143.88h10v20h-10c-5.52,0-10-4.48-10-10
		C404.18,148.37,408.66,143.88,414.18,143.88L414.18,143.88z M166.38,20v22.02h-22.02V20H166.38z M102.47,20h21.89v32.02
		c0,5.52,4.48,10,10,10h42.02c5.52,0,10-4.48,10-10V20h22.15l0.02,106.06c0,0-0.01,0-0.02,0H102.47V20z M107.5,174.06
		c-7.72,0-14-6.28-14-14c0-7.72,6.28-14,14-14h96c7.72,0,14,6.28,14,14c0,7.72-6.28,14-14,14H107.5z M162,346.03
		c0,20.82-16.84,37.78-37.61,37.99c-0.13,0-0.26-0.02-0.39-0.02h-1.15C102.43,383.39,86,366.6,86,346.03c0-0.69-0.07-1.36-0.2-2
		h76.4C162.07,344.68,162,345.34,162,346.03L162,346.03z M60.74,324.03c2.48-15.89,10.82-30.24,23.71-40.36
		c0.03-0.02,0.06-0.05,0.09-0.07c11.35-8.9,25-13.6,39.46-13.6c31.91,0,58.43,23.46,63.25,54.03H60.74z M279,85.06
		c0-3.31,2.69-6,6-6h22.03v7.03c0,1.7,0.17,3.36,0.5,4.97H285C281.69,91.06,279,88.37,279,85.06L279,85.06z M346.47,91.06H332
		c-2.74,0-4.97-2.23-4.97-4.97V68.03c0-2.74,2.23-4.97,4.97-4.97h59.03c2.74,0,4.97,2.23,4.97,4.97v18.06
		c0,2.74-2.23,4.97-4.97,4.97H346.47z M470,346.03c0,20.82-16.84,37.78-37.61,37.99c-0.13,0-0.26-0.02-0.39-0.02h-1.15
		c-20.42-0.61-36.85-17.4-36.85-37.97c0-7.94,2.48-15.62,7.04-22.03h61.92C467.52,330.41,470,338.09,470,346.03L470,346.03z
		 M467.74,304h-90.38l38.13-67.92c38.95,0.72,71,30.11,75.87,67.92H467.74z M467.74,304"/>
	<path class="st0" d="M346.47,181.21c5.52,0,10-4.48,10-10c0-5.52-4.48-10-10-10h-0.04c-5.52,0-9.98,4.48-9.98,10
		C336.45,176.74,340.95,181.21,346.47,181.21L346.47,181.21z M346.47,181.21"/>
</g>
</svg>
