<?xml version="1.0" encoding="utf-8"?>
<!-- Generator: Adobe Illustrator 24.2.3, SVG Export Plug-In . SVG Version: 6.00 Build 0)  -->
<svg version="1.1" id="Layer_1" xmlns="http://www.w3.org/2000/svg" xmlns:xlink="http://www.w3.org/1999/xlink" x="0px" y="0px"
	 viewBox="0 0 116.8 91.84" style="enable-background:new 0 0 116.8 91.84;" xml:space="preserve">
<style type="text/css">
	.st0{fill:#FFFFFF;}
</style>
<g>
	<path class="st0" d="M11.21,28.29c1.48,1.04,5.93,4.14,13.36,9.28c7.43,5.15,13.13,9.12,17.08,11.9c0.43,0.3,1.36,0.97,2.77,1.99
		c1.41,1.02,2.59,1.85,3.52,2.48c0.93,0.63,2.06,1.34,3.39,2.12c1.32,0.78,2.57,1.37,3.75,1.76c1.18,0.39,2.26,0.59,3.26,0.59h0.13
		c1,0,2.09-0.2,3.26-0.59c1.17-0.39,2.42-0.98,3.75-1.76c1.32-0.79,2.45-1.49,3.39-2.12c0.93-0.63,2.11-1.45,3.52-2.48
		c1.41-1.02,2.34-1.68,2.77-1.99c4-2.78,14.16-9.84,30.5-21.18c3.17-2.21,5.82-4.89,7.95-8.02c2.13-3.13,3.2-6.41,3.2-9.84
		c0-2.87-1.04-5.32-3.1-7.37C111.64,1.02,109.19,0,106.37,0H10.43C7.08,0,4.51,1.13,2.7,3.39C0.9,5.65,0,8.47,0,11.86
		c0,2.74,1.19,5.7,3.59,8.9C5.97,23.95,8.52,26.47,11.21,28.29L11.21,28.29z M11.21,28.29"/>
	<path class="st0" d="M110.28,35.26C96.03,44.91,85.21,52.4,77.82,57.75c-2.48,1.83-4.49,3.25-6.03,4.27
		c-1.54,1.02-3.59,2.07-6.16,3.13c-2.57,1.07-4.95,1.6-7.17,1.6h-0.13c-2.22,0-4.61-0.53-7.17-1.6c-2.56-1.06-4.62-2.11-6.16-3.13
		c-1.54-1.02-3.55-2.44-6.03-4.27c-5.87-4.3-16.67-11.8-32.39-22.48C4.1,33.61,1.91,31.72,0,29.59v51.75c0,2.87,1.02,5.32,3.06,7.37
		c2.04,2.04,4.5,3.06,7.37,3.06h95.94c2.87,0,5.32-1.02,7.37-3.06c2.04-2.04,3.06-4.5,3.06-7.37V29.59
		C114.93,31.68,112.76,33.57,110.28,35.26L110.28,35.26z M110.28,35.26"/>
</g>
</svg>
