<?xml version="1.0" encoding="utf-8"?>
<!-- Generator: Adobe Illustrator 24.2.3, SVG Export Plug-In . SVG Version: 6.00 Build 0)  -->
<svg version="1.1" id="Objects" xmlns="http://www.w3.org/2000/svg" xmlns:xlink="http://www.w3.org/1999/xlink" x="0px" y="0px"
	 viewBox="0 0 81.36 81.36" style="enable-background:new 0 0 81.36 81.36;" xml:space="preserve">
<style type="text/css">
	.st0{fill:#FFFFFF;}
</style>
<path class="st0" d="M40.68,0C18.21,0,0,18.21,0,40.68c0,22.47,18.21,40.68,40.68,40.68c22.47,0,40.68-18.21,40.68-40.68
	C81.36,18.21,63.15,0,40.68,0z M52.63,24.68c0,0-4.05,0-5.65,0c-2,0-2.41,0.82-2.41,2.88c0,1.72,0,4.99,0,4.99h8.06l-0.78,8.76
	h-7.29v26.15H34.12V41.41h-5.43v-8.86h5.43c0,0,0-1.27,0-6.98c0-6.55,3.5-9.97,11.27-9.97c1.27,0,7.23,0,7.23,0V24.68z"/>
</svg>
