<?xml version="1.0" encoding="utf-8"?>
<!-- Generator: Adobe Illustrator 24.2.3, SVG Export Plug-In . SVG Version: 6.00 Build 0)  -->
<svg version="1.1" id="Objects" xmlns="http://www.w3.org/2000/svg" xmlns:xlink="http://www.w3.org/1999/xlink" x="0px" y="0px"
	 viewBox="0 0 81.36 81.36" style="enable-background:new 0 0 81.36 81.36;" xml:space="preserve">
<style type="text/css">
	.st0{fill:#FFFFFF;}
</style>
<g>
	<path class="st0" d="M59.06,27.66c-0.43-1.1-0.94-1.88-1.76-2.7c-0.82-0.82-1.61-1.33-2.7-1.76c-0.83-0.32-2.07-0.71-4.37-0.81
		c-2.48-0.11-3.22-0.14-9.5-0.14c-6.28,0-7.02,0.02-9.5,0.14c-2.29,0.1-3.54,0.49-4.37,0.81c-1.1,0.43-1.88,0.94-2.7,1.76
		c-0.82,0.82-1.33,1.61-1.76,2.7c-0.32,0.83-0.71,2.07-0.81,4.37c-0.11,2.48-0.14,3.22-0.14,9.5c0,6.28,0.02,7.02,0.14,9.5
		c0.1,2.29,0.49,3.54,0.81,4.37c0.43,1.1,0.94,1.88,1.76,2.7c0.82,0.82,1.61,1.33,2.7,1.76c0.83,0.32,2.07,0.71,4.37,0.81
		c2.48,0.11,3.22,0.14,9.5,0.14c6.28,0,7.02-0.02,9.5-0.14c2.29-0.1,3.54-0.49,4.37-0.81c1.1-0.43,1.88-0.94,2.7-1.76
		c0.82-0.82,1.33-1.61,1.76-2.7c0.32-0.83,0.71-2.07,0.81-4.37c0.11-2.48,0.14-3.22,0.14-9.5c0-6.28-0.02-7.02-0.14-9.5
		C59.76,29.74,59.38,28.49,59.06,27.66z M40.72,53.61c-6.67,0-12.08-5.41-12.08-12.08c0-6.67,5.41-12.08,12.08-12.08
		c6.67,0,12.08,5.41,12.08,12.08C52.8,48.2,47.39,53.61,40.72,53.61z M53.28,31.8c-1.56,0-2.82-1.26-2.82-2.82
		c0-1.56,1.26-2.82,2.82-2.82c1.56,0,2.82,1.26,2.82,2.82C56.1,30.54,54.84,31.8,53.28,31.8z"/>
	<path class="st0" d="M40.72,33.69c-4.33,0-7.84,3.51-7.84,7.84c0,4.33,3.51,7.84,7.84,7.84s7.84-3.51,7.84-7.84
		C48.56,37.2,45.05,33.69,40.72,33.69z"/>
	<path class="st0" d="M40.68,0C18.21,0,0,18.21,0,40.68c0,22.47,18.21,40.68,40.68,40.68c22.47,0,40.68-18.21,40.68-40.68
		C81.36,18.21,63.15,0,40.68,0z M64.1,51.23c-0.11,2.5-0.51,4.21-1.09,5.71c-0.6,1.55-1.41,2.86-2.71,4.17
		c-1.31,1.31-2.62,2.11-4.17,2.71c-1.5,0.58-3.21,0.98-5.71,1.09c-2.51,0.11-3.31,0.14-9.7,0.14c-6.39,0-7.19-0.03-9.7-0.14
		c-2.5-0.11-4.21-0.51-5.71-1.09c-1.55-0.6-2.86-1.41-4.17-2.71c-1.31-1.31-2.11-2.62-2.71-4.17c-0.58-1.5-0.98-3.21-1.09-5.71
		c-0.11-2.51-0.14-3.31-0.14-9.7c0-6.39,0.03-7.19,0.14-9.7c0.11-2.5,0.51-4.21,1.09-5.71c0.6-1.55,1.41-2.86,2.71-4.17
		c1.31-1.31,2.62-2.11,4.17-2.71c1.5-0.58,3.21-0.98,5.71-1.09c2.51-0.11,3.31-0.14,9.7-0.14c6.39,0,7.19,0.03,9.7,0.14
		c2.5,0.11,4.21,0.51,5.71,1.09c1.55,0.6,2.86,1.41,4.17,2.71c1.31,1.31,2.11,2.62,2.71,4.17c0.58,1.5,0.98,3.21,1.09,5.71
		c0.11,2.51,0.14,3.31,0.14,9.7C64.24,47.92,64.22,48.72,64.1,51.23z"/>
</g>
</svg>
