<?xml version="1.0" encoding="utf-8"?>
<!-- Generator: Adobe Illustrator 24.2.3, SVG Export Plug-In . SVG Version: 6.00 Build 0)  -->
<svg version="1.1" id="Objects" xmlns="http://www.w3.org/2000/svg" xmlns:xlink="http://www.w3.org/1999/xlink" x="0px" y="0px"
	 viewBox="0 0 81.36 81.36" style="enable-background:new 0 0 81.36 81.36;" xml:space="preserve">
<style type="text/css">
	.st0{fill:#FFFFFF;}
</style>
<path class="st0" d="M40.68,0C18.21,0,0,18.21,0,40.68c0,22.47,18.21,40.68,40.68,40.68c22.47,0,40.68-18.21,40.68-40.68
	C81.36,18.21,63.15,0,40.68,0z M61.89,33.36c0.59,13.19-9.24,27.9-26.66,27.9c-5.3,0-10.22-1.55-14.38-4.21
	c4.98,0.59,9.94-0.79,13.88-3.88c-4.1-0.08-7.57-2.79-8.76-6.51c1.47,0.28,2.91,0.2,4.23-0.16c-4.51-0.91-7.62-4.97-7.52-9.31
	c1.26,0.7,2.71,1.13,4.25,1.17c-4.18-2.79-5.36-8.31-2.9-12.52c4.62,5.67,11.53,9.41,19.33,9.8c-1.37-5.87,3.08-11.51,9.13-11.51
	c2.7,0,5.14,1.14,6.85,2.96c2.13-0.42,4.14-1.2,5.95-2.28c-0.7,2.19-2.19,4.03-4.12,5.19c1.9-0.23,3.7-0.73,5.39-1.48
	C65.32,30.39,63.73,32.04,61.89,33.36z"/>
</svg>
