<?xml version="1.0" encoding="utf-8"?>
<!-- Generator: Adobe Illustrator 24.2.3, SVG Export Plug-In . SVG Version: 6.00 Build 0)  -->
<svg version="1.1" id="Objects" xmlns="http://www.w3.org/2000/svg" xmlns:xlink="http://www.w3.org/1999/xlink" x="0px" y="0px"
	 viewBox="0 0 81.36 80.57" style="enable-background:new 0 0 81.36 80.57;" xml:space="preserve">
<style type="text/css">
	.st0{fill:#FFFFFF;}
</style>
<g>
	<path class="st0" d="M41.22,19.06c-10.07,0-18.37,7.65-19.33,17.4c-0.06,0.62-0.1,1.24-0.1,1.87c0,4.22,1.37,8.12,3.7,11.3
		l-2.42,7.16l7.46-2.38c3.07,2.02,6.74,3.19,10.69,3.19c10.71,0,19.42-8.64,19.42-19.27c0-0.51-0.02-1.01-0.07-1.5
		C59.8,26.9,51.42,19.06,41.22,19.06z M52.55,46.28c-0.46,1.32-2.78,2.58-3.82,2.67c-1.04,0.1-1.04,0.84-6.8-1.39
		c-5.75-2.26-9.39-8.12-9.67-8.49c-0.22-0.28-1.45-1.91-2.02-3.89c-0.17-0.62-0.29-1.27-0.29-1.91c0-2.77,1.46-4.13,1.98-4.69
		c0.52-0.56,1.14-0.7,1.51-0.7c0.38,0,0.76,0.05,1.08,0.05c0.34,0,0.81-0.19,1.28,0.93c0.48,1.12,1.61,3.89,1.75,4.17
		c0.14,0.28,0.24,0.61,0.04,0.98c-0.13,0.27-0.23,0.47-0.36,0.67c-0.06,0.09-0.13,0.17-0.21,0.27c-0.29,0.32-0.59,0.72-0.85,0.98
		c-0.28,0.28-0.57,0.58-0.25,1.15c0.32,0.56,1.47,2.4,3.15,3.88c2.16,1.92,3.99,2.51,4.55,2.79c0.57,0.28,0.9,0.24,1.23-0.14
		c0.32-0.37,1.42-1.63,1.8-2.2c0.38-0.56,0.76-0.48,1.28-0.28c0.52,0.18,3.3,1.55,3.87,1.83c0.56,0.28,0.94,0.42,1.08,0.65
		C53.03,43.85,53.03,44.98,52.55,46.28z"/>
	<path class="st0" d="M40.68,0C18.21,0,0,18.21,0,40.68c0,22.47,18.21,40.68,40.68,40.68c22.47,0,40.68-18.21,40.68-40.68
		C81.36,18.21,63.15,0,40.68,0z M41.22,61.26c-4.04,0-7.85-1.04-11.16-2.86l-12.79,4.07l4.16-12.3c-2.1-3.46-3.31-7.51-3.31-11.84
		c0-0.34,0.01-0.67,0.02-1.01c0.54-12.2,10.66-21.92,23.08-21.92c12.57,0,22.78,9.95,23.09,22.34c0.01,0.19,0.01,0.39,0.01,0.58
		C64.32,51,53.98,61.26,41.22,61.26z"/>
</g>
</svg>
